<mxfile host="app.diagrams.net" modified="2024-04-16T21:45:14.214Z" agent="Mozilla/5.0 (Windows NT 10.0; Win64; x64) AppleWebKit/537.36 (KHTML, like Gecko) Chrome/123.0.0.0 Safari/537.36" version="24.2.1" etag="7R22guX753xroFsEiSbu" type="github">
  <diagram name="Страница — 1" id="2kz7DbpQiIhY9ArGgx2x">
    <mxGraphModel>
      <root>
        <mxCell id="0" />
        <mxCell id="1" parent="0" />
      </root>
    </mxGraphModel>
  </diagram>
</mxfile>
